<svg width="28" height="28" viewBox="0 0 28 28" fill="none" xmlns="http://www.w3.org/2000/svg">
<path d="M13.7418 3.2835e-07C11.0244 -0.00059364 8.36785 0.804668 6.10812 2.31395C3.84839 3.82322 2.08699 5.96872 1.04667 8.47911C0.00635442 10.9895 -0.266148 13.752 0.263627 16.4173C0.793403 19.0825 2.10166 21.5308 4.02295 23.4525C5.94423 25.3742 8.39225 26.683 11.0574 27.2134C13.7225 27.7438 16.4851 27.4719 18.9957 26.4321C21.5063 25.3923 23.6522 23.6314 25.162 21.372C26.6718 19.1126 27.4776 16.4562 27.4776 13.7388C27.4736 10.0968 26.0253 6.60503 23.4503 4.02945C20.8753 1.45387 17.3838 0.00476937 13.7418 3.2835e-07ZM17.5526 8.15019C17.5526 8.20514 17.5308 8.25785 17.4919 8.29671C17.4531 8.33556 17.4004 8.35739 17.3454 8.35739H15.6938C15.4992 8.35739 15.3125 8.4345 15.1746 8.57183C15.0367 8.70915 14.9588 8.89552 14.958 9.09013V10.8199H17.3094C17.3379 10.8202 17.3661 10.8264 17.3921 10.8381C17.4182 10.8498 17.4415 10.8667 17.4607 10.8879C17.4799 10.909 17.4945 10.9339 17.5036 10.961C17.5127 10.988 17.5161 11.0167 17.5136 11.0451L17.3094 13.4835C17.3049 13.5353 17.2811 13.5835 17.2427 13.6185C17.2043 13.6536 17.1542 13.6729 17.1022 13.6727H14.958V21.7659C14.958 21.8208 14.9362 21.8735 14.8973 21.9124C14.8585 21.9512 14.8058 21.9731 14.7508 21.9731H11.7929C11.7379 21.9731 11.6852 21.9512 11.6463 21.9124C11.6075 21.8735 11.5856 21.8208 11.5856 21.7659V13.6727H10.1082C10.0532 13.6727 10.0005 13.6509 9.96164 13.612C9.92278 13.5732 9.90095 13.5205 9.90095 13.4655V11.0271C9.90095 10.9721 9.92278 10.9194 9.96164 10.8806C10.0005 10.8417 10.0532 10.8199 10.1082 10.8199H11.5856V8.47151C11.5856 7.68462 11.8982 6.92995 12.4547 6.37354C13.0111 5.81712 13.7657 5.50453 14.5526 5.50453H17.3454C17.4004 5.50453 17.4531 5.52636 17.4919 5.56522C17.5308 5.60408 17.5526 5.65678 17.5526 5.71174V8.15019Z" fill="#212121"/>
</svg>
