<svg width="28" height="28" viewBox="0 0 28 28" fill="none" xmlns="http://www.w3.org/2000/svg">
<path d="M14.8471 11.9439H14.8678V11.9114L14.8471 11.9439ZM14.8471 11.9439H14.8678V11.9114L14.8471 11.9439ZM14.8471 11.9439H14.8678V11.9114L14.8471 11.9439ZM14.8471 11.9439H14.8678V11.9114L14.8471 11.9439ZM14.8471 11.9439H14.8678V11.9114L14.8471 11.9439ZM14.8471 11.9439H14.8678V11.9114L14.8471 11.9439ZM14.8471 11.9439H14.8678V11.9114L14.8471 11.9439ZM14.8471 11.9439H14.8678V11.9114L14.8471 11.9439ZM14.8471 11.9439H14.8678V11.9114L14.8471 11.9439ZM14.8471 11.9439H14.8678V11.9114L14.8471 11.9439ZM14.8471 11.9439H14.8678V11.9114L14.8471 11.9439ZM14.8471 11.9439H14.8678V11.9114L14.8471 11.9439ZM14.8471 11.9439H14.8678V11.9114L14.8471 11.9439ZM14.8471 11.9439H14.8678V11.9114L14.8471 11.9439ZM14.8471 11.9439H14.8678V11.9114L14.8471 11.9439ZM14.8471 11.9439H14.8678V11.9114L14.8471 11.9439ZM13.5019 0C10.8315 0 8.22104 0.791874 6.00066 2.27548C3.78028 3.7591 2.04971 5.86781 1.02778 8.33496C0.00585001 10.8021 -0.261533 13.5169 0.259442 16.136C0.780417 18.7551 2.06635 21.1609 3.95463 23.0492C5.84291 24.9375 8.24872 26.2234 10.8678 26.7444C13.487 27.2654 16.2017 26.998 18.6689 25.9761C21.136 24.9541 23.2448 23.2236 24.7284 21.0032C26.212 18.7828 27.0039 16.1724 27.0039 13.5019C26.9999 9.92219 25.5762 6.4902 23.0449 3.95894C20.5137 1.42769 17.0817 0.00391271 13.5019 0ZM10.1257 19.5803C10.1249 19.6402 10.1006 19.6973 10.058 19.7394C10.0154 19.7814 9.95793 19.805 9.89807 19.805H7.29643C7.23684 19.805 7.17969 19.7813 7.13755 19.7392C7.09541 19.697 7.07174 19.6399 7.07174 19.5803V10.8382C7.07135 10.8084 7.07687 10.7789 7.08799 10.7513C7.0991 10.7237 7.11559 10.6986 7.13649 10.6774C7.1574 10.6562 7.1823 10.6394 7.20975 10.6279C7.23721 10.6165 7.26667 10.6106 7.29643 10.6106H9.89807C9.92796 10.6106 9.95756 10.6164 9.98518 10.6279C10.0128 10.6393 10.0379 10.6561 10.059 10.6772C10.0802 10.6984 10.0969 10.7235 10.1084 10.7511C10.1198 10.7787 10.1257 10.8083 10.1257 10.8382V19.5803ZM8.5056 9.44277C8.18225 9.44277 7.86616 9.34689 7.5973 9.16724C7.32844 8.9876 7.11889 8.73226 6.99515 8.43353C6.87141 8.13479 6.83903 7.80607 6.90212 7.48893C6.9652 7.17179 7.12091 6.88048 7.34955 6.65183C7.5782 6.42319 7.86951 6.26748 8.18665 6.2044C8.50378 6.14132 8.83251 6.17369 9.13124 6.29743C9.42998 6.42117 9.68532 6.63072 9.86496 6.89958C10.0446 7.16844 10.1405 7.48453 10.1405 7.80788C10.1409 8.02269 10.0989 8.23546 10.0168 8.43399C9.93481 8.63252 9.8144 8.8129 9.66251 8.96479C9.51062 9.11668 9.33024 9.23709 9.13171 9.31912C8.93317 9.40114 8.7204 9.44316 8.5056 9.44277ZM21.1354 19.5803C21.1346 19.6402 21.1103 19.6973 21.0677 19.7394C21.0251 19.7814 20.9676 19.805 20.9077 19.805H18.3061C18.2766 19.805 18.2474 19.7992 18.2201 19.7879C18.1929 19.7766 18.1681 19.76 18.1472 19.7392C18.1264 19.7183 18.1098 19.6936 18.0985 19.6663C18.0872 19.639 18.0814 19.6098 18.0814 19.5803V14.8826C18.0814 13.6468 17.6409 12.8131 16.5352 12.8131C16.1907 12.815 15.8551 12.9234 15.5746 13.1235C15.2941 13.3236 15.0823 13.6055 14.9683 13.9306C14.8904 14.1709 14.8563 14.4233 14.8678 14.6756V19.5803C14.8678 19.6407 14.8438 19.6986 14.8011 19.7413C14.7584 19.784 14.7005 19.8079 14.6401 19.8079H12.0385C12.0088 19.8079 11.9793 19.802 11.9518 19.7906C11.9244 19.7791 11.8995 19.7623 11.8786 19.7411C11.8577 19.7199 11.8412 19.6948 11.8301 19.6672C11.819 19.6396 11.8134 19.6101 11.8138 19.5803C11.8138 18.3327 11.8463 12.275 11.8138 10.85C11.8134 10.8203 11.819 10.7907 11.8301 10.7631C11.8412 10.7355 11.8577 10.7104 11.8786 10.6892C11.8995 10.6681 11.9244 10.6512 11.9518 10.6398C11.9793 10.6283 12.0088 10.6224 12.0385 10.6224H14.6342C14.6642 10.622 14.694 10.6276 14.7218 10.6389C14.7496 10.6502 14.7749 10.667 14.7961 10.6882C14.8173 10.7094 14.8341 10.7346 14.8454 10.7624C14.8567 10.7902 14.8623 10.82 14.8619 10.85V11.9232C15.1384 11.4432 15.5411 11.048 16.0264 10.7806C16.5116 10.5133 17.0608 10.3839 17.6143 10.4066C19.6217 10.4066 21.1295 11.7192 21.1295 14.5455L21.1354 19.5803ZM14.8678 11.9528V11.9202L14.8471 11.9528H14.8678ZM14.8471 11.9528H14.8678V11.9202L14.8471 11.9528ZM14.8471 11.9528H14.8678V11.9202L14.8471 11.9528ZM14.8471 11.9528H14.8678V11.9202L14.8471 11.9528ZM14.8471 11.9528H14.8678V11.9202L14.8471 11.9528ZM14.8471 11.9528H14.8678V11.9202L14.8471 11.9528ZM14.8471 11.9528H14.8678V11.9202L14.8471 11.9528ZM14.8471 11.9528H14.8678V11.9202L14.8471 11.9528ZM14.8471 11.9528H14.8678V11.9202L14.8471 11.9528ZM14.8471 11.9528H14.8678V11.9202L14.8471 11.9528ZM14.8471 11.9528H14.8678V11.9202L14.8471 11.9528ZM14.8471 11.9528H14.8678V11.9202L14.8471 11.9528ZM14.8471 11.9528H14.8678V11.9202L14.8471 11.9528ZM14.8471 11.9528H14.8678V11.9202L14.8471 11.9528ZM14.8471 11.9528H14.8678V11.9202L14.8471 11.9528Z" fill="#212121"/>
</svg>
