<svg width="28" height="28" viewBox="0 0 28 28" fill="none" xmlns="http://www.w3.org/2000/svg">
<path d="M13.5019 0C10.8315 0 8.22104 0.805766 6.00066 2.31541C3.78028 3.82504 2.04971 5.97075 1.02778 8.48119C0.00585012 10.9916 -0.261533 13.754 0.259442 16.4191C0.780416 19.0842 2.06635 21.5322 3.95463 23.4536C5.84291 25.375 8.24872 26.6835 10.8678 27.2136C13.487 27.7437 16.2017 27.4717 18.6689 26.4318C21.136 25.3919 23.2448 23.631 24.7284 21.3717C26.212 19.1123 27.0039 16.4561 27.0039 13.7388C26.9999 10.0963 25.5762 6.60405 23.0449 4.02839C20.5137 1.45273 17.0817 0.0039744 13.5019 0ZM22.2051 8.73878C22.2103 8.83046 22.1831 8.92101 22.1284 8.99403C21.7766 9.4976 21.354 9.94584 20.8741 10.3244C20.8033 10.3814 20.6823 10.4385 20.6823 10.5406C20.6823 13.1862 20.0183 15.8289 18.1236 17.7478C15.7124 20.1863 12.0883 20.8499 8.87439 19.946C8.25404 19.7707 7.65434 19.527 7.08593 19.2193C6.89705 19.1142 6.71113 19.0061 6.52815 18.883C6.48093 18.8439 6.44847 18.8109 6.48683 18.7839C6.5252 18.7568 6.55471 18.7628 6.69932 18.7839C7.60583 18.8658 8.51903 18.747 9.3761 18.4355C9.84239 18.2704 10.8517 17.937 11.1468 17.4866C11.1468 17.4866 11.1468 17.4866 11.1675 17.4655C11.0494 17.4385 10.9344 17.4385 10.8163 17.4175C9.93093 17.1622 8.77699 16.7178 8.23692 15.2193C8.2015 15.1292 8.23692 15.0842 8.32545 15.1022C8.73395 15.1593 9.14898 15.1461 9.55317 15.0631C9.41003 15.0366 9.27039 14.9933 9.13705 14.934C8.59039 14.709 8.11236 14.3401 7.75194 13.8652C7.39152 13.3902 7.16167 12.8264 7.08593 12.2313C7.06854 12.107 7.06261 11.9813 7.06823 11.8559C7.06823 11.7658 7.1125 11.7388 7.18628 11.7868C7.57688 11.9896 8.00328 12.1111 8.44055 12.1442C8.29889 12.0331 8.16904 11.91 8.03918 11.7868C7.08593 10.8679 6.71703 8.99704 7.47845 7.83187C7.54042 7.73877 7.58174 7.73877 7.65847 7.83187C9.40266 9.8559 11.5541 10.7988 14.1512 11.1922C14.222 11.1922 14.2279 11.1922 14.2191 11.1142C14.136 10.657 14.142 10.1876 14.2368 9.73278C14.3538 9.25492 14.5724 8.80899 14.8772 8.42646C15.1709 8.05453 15.5366 7.7479 15.9515 7.52556C16.3369 7.32466 16.7567 7.20129 17.188 7.16219C17.1969 7.16926 17.2078 7.1731 17.219 7.1731C17.2303 7.1731 17.2412 7.16926 17.25 7.16219H17.188H17.2884C18.1341 7.10946 18.9663 7.39748 19.6051 7.964C19.6653 8.01574 19.7206 8.07304 19.7704 8.13517C19.787 8.15216 19.8079 8.1642 19.8308 8.17002C19.8537 8.17584 19.8777 8.17521 19.9002 8.16821C20.5573 8.00489 21.1918 7.75874 21.789 7.43547C21.8023 7.42861 21.8169 7.42504 21.8318 7.42504C21.8467 7.42504 21.8613 7.42861 21.8746 7.43547C21.9012 7.45649 21.8746 7.49253 21.8746 7.51955C21.7597 7.87791 21.5795 8.21104 21.3434 8.50154C21.1929 8.69073 20.8151 9.16521 20.5613 9.20725C21.1077 9.11574 21.6403 8.95325 22.1461 8.72376C22.211 8.69373 22.2051 8.68172 22.2051 8.72376V8.73878Z" fill="#212121"/>
</svg>
